<mxfile host="Electron" agent="Mozilla/5.0 (Macintosh; Intel Mac OS X 10_15_7) AppleWebKit/537.36 (KHTML, like Gecko) draw.io/28.2.8 Chrome/140.0.7339.240 Electron/38.4.0 Safari/537.36" version="28.2.8">
  <diagram name="PÃ¡gina-1" id="VQpx9MoiRAf_-tVvUqys">
    <mxGraphModel dx="976" dy="755" grid="1" gridSize="10" guides="1" tooltips="1" connect="1" arrows="1" fold="1" page="1" pageScale="1" pageWidth="827" pageHeight="1169" math="0" shadow="0">
      <root>
        <mxCell id="0" />
        <mxCell id="1" parent="0" />
        <mxCell id="u-Y_-omCGsZvcQhvZwyH-11" style="edgeStyle=orthogonalEdgeStyle;shape=connector;rounded=0;orthogonalLoop=1;jettySize=auto;html=1;entryX=0.5;entryY=0;entryDx=0;entryDy=0;strokeColor=default;align=center;verticalAlign=middle;fontFamily=Helvetica;fontSize=11;fontColor=default;labelBackgroundColor=default;endArrow=none;endFill=0;" edge="1" parent="1" source="u-Y_-omCGsZvcQhvZwyH-1" target="u-Y_-omCGsZvcQhvZwyH-7">
          <mxGeometry relative="1" as="geometry" />
        </mxCell>
        <mxCell id="u-Y_-omCGsZvcQhvZwyH-1" value="PACIENTE" style="whiteSpace=wrap;html=1;" vertex="1" parent="1">
          <mxGeometry x="330" y="60" width="120" height="60" as="geometry" />
        </mxCell>
        <mxCell id="u-Y_-omCGsZvcQhvZwyH-3" value="MEDICO" style="whiteSpace=wrap;html=1;" vertex="1" parent="1">
          <mxGeometry x="130" y="260" width="120" height="60" as="geometry" />
        </mxCell>
        <mxCell id="u-Y_-omCGsZvcQhvZwyH-13" style="edgeStyle=orthogonalEdgeStyle;shape=connector;rounded=0;orthogonalLoop=1;jettySize=auto;html=1;entryX=1;entryY=0.5;entryDx=0;entryDy=0;strokeColor=default;align=center;verticalAlign=middle;fontFamily=Helvetica;fontSize=11;fontColor=default;labelBackgroundColor=default;endArrow=none;endFill=0;" edge="1" parent="1" source="u-Y_-omCGsZvcQhvZwyH-4" target="u-Y_-omCGsZvcQhvZwyH-8">
          <mxGeometry relative="1" as="geometry" />
        </mxCell>
        <mxCell id="u-Y_-omCGsZvcQhvZwyH-4" value="CITA" style="whiteSpace=wrap;html=1;" vertex="1" parent="1">
          <mxGeometry x="570" y="230" width="120" height="60" as="geometry" />
        </mxCell>
        <mxCell id="u-Y_-omCGsZvcQhvZwyH-5" value="TRATAMIENTO" style="whiteSpace=wrap;html=1;" vertex="1" parent="1">
          <mxGeometry x="330" y="400" width="120" height="60" as="geometry" />
        </mxCell>
        <mxCell id="u-Y_-omCGsZvcQhvZwyH-10" style="edgeStyle=orthogonalEdgeStyle;rounded=0;orthogonalLoop=1;jettySize=auto;html=1;entryX=0;entryY=0.25;entryDx=0;entryDy=0;endArrow=none;endFill=0;" edge="1" parent="1" source="u-Y_-omCGsZvcQhvZwyH-6" target="u-Y_-omCGsZvcQhvZwyH-1">
          <mxGeometry relative="1" as="geometry" />
        </mxCell>
        <mxCell id="u-Y_-omCGsZvcQhvZwyH-6" value="atiende" style="rhombus;whiteSpace=wrap;html=1;" vertex="1" parent="1">
          <mxGeometry x="150" y="110" width="80" height="80" as="geometry" />
        </mxCell>
        <mxCell id="u-Y_-omCGsZvcQhvZwyH-12" style="edgeStyle=orthogonalEdgeStyle;shape=connector;rounded=0;orthogonalLoop=1;jettySize=auto;html=1;entryX=0.5;entryY=0;entryDx=0;entryDy=0;strokeColor=default;align=center;verticalAlign=middle;fontFamily=Helvetica;fontSize=11;fontColor=default;labelBackgroundColor=default;endArrow=none;endFill=0;" edge="1" parent="1" source="u-Y_-omCGsZvcQhvZwyH-7" target="u-Y_-omCGsZvcQhvZwyH-4">
          <mxGeometry relative="1" as="geometry" />
        </mxCell>
        <mxCell id="u-Y_-omCGsZvcQhvZwyH-7" value="tiene" style="rhombus;whiteSpace=wrap;html=1;" vertex="1" parent="1">
          <mxGeometry x="530" y="110" width="80" height="80" as="geometry" />
        </mxCell>
        <mxCell id="u-Y_-omCGsZvcQhvZwyH-14" style="edgeStyle=orthogonalEdgeStyle;shape=connector;rounded=0;orthogonalLoop=1;jettySize=auto;html=1;entryX=1;entryY=0.5;entryDx=0;entryDy=0;strokeColor=default;align=center;verticalAlign=middle;fontFamily=Helvetica;fontSize=11;fontColor=default;labelBackgroundColor=default;endArrow=none;endFill=0;" edge="1" parent="1" source="u-Y_-omCGsZvcQhvZwyH-8" target="u-Y_-omCGsZvcQhvZwyH-5">
          <mxGeometry relative="1" as="geometry" />
        </mxCell>
        <mxCell id="u-Y_-omCGsZvcQhvZwyH-8" value="incluye" style="rhombus;whiteSpace=wrap;html=1;" vertex="1" parent="1">
          <mxGeometry x="520" y="360" width="80" height="80" as="geometry" />
        </mxCell>
        <mxCell id="u-Y_-omCGsZvcQhvZwyH-9" value="" style="endArrow=none;html=1;rounded=0;exitX=0.5;exitY=0;exitDx=0;exitDy=0;" edge="1" parent="1" source="u-Y_-omCGsZvcQhvZwyH-3">
          <mxGeometry width="50" height="50" relative="1" as="geometry">
            <mxPoint x="140" y="240" as="sourcePoint" />
            <mxPoint x="190" y="190" as="targetPoint" />
          </mxGeometry>
        </mxCell>
        <mxCell id="u-Y_-omCGsZvcQhvZwyH-15" value="1:N" style="text;html=1;whiteSpace=wrap;strokeColor=none;fillColor=none;align=center;verticalAlign=middle;rounded=0;fontFamily=Helvetica;fontSize=11;fontColor=default;labelBackgroundColor=default;" vertex="1" parent="1">
          <mxGeometry x="120" y="110" width="60" height="30" as="geometry" />
        </mxCell>
        <mxCell id="u-Y_-omCGsZvcQhvZwyH-16" value="1:N" style="text;html=1;whiteSpace=wrap;strokeColor=none;fillColor=none;align=center;verticalAlign=middle;rounded=0;fontFamily=Helvetica;fontSize=11;fontColor=default;labelBackgroundColor=default;" vertex="1" parent="1">
          <mxGeometry x="600" y="135" width="60" height="30" as="geometry" />
        </mxCell>
        <mxCell id="u-Y_-omCGsZvcQhvZwyH-17" value="1:1" style="text;html=1;whiteSpace=wrap;strokeColor=none;fillColor=none;align=center;verticalAlign=middle;rounded=0;fontFamily=Helvetica;fontSize=11;fontColor=default;labelBackgroundColor=default;" vertex="1" parent="1">
          <mxGeometry x="530" y="330" width="60" height="30" as="geometry" />
        </mxCell>
      </root>
    </mxGraphModel>
  </diagram>
</mxfile>
